<?xml version="1.0" encoding="UTF-8" standalone="no"?>
<!DOCTYPE svg PUBLIC "-//W3C//DTD SVG 1.1//EN"
 "http://www.w3.org/Graphics/SVG/1.1/DTD/svg11.dtd">
<!-- Generated by graphviz version 12.2.1 (20241206.2353)
 -->
<!-- Title: architecture Pages: 1 -->
<svg width="2537pt" height="1169pt"
 viewBox="0.00 0.00 2537.48 1168.50" xmlns="http://www.w3.org/2000/svg" xmlns:xlink="http://www.w3.org/1999/xlink">
<g id="graph0" class="graph" transform="scale(1 1) rotate(0) translate(4 1164.5)">
<title>architecture</title>
<polygon fill="white" stroke="none" points="-4,4 -4,-1164.5 2533.48,-1164.5 2533.48,4 -4,4"/>
<g id="clust1" class="cluster">
<title>cluster_github</title>
<polygon fill="#fff9d6" stroke="black" points="1632.48,-743 1632.48,-1152.5 1809.48,-1152.5 1809.48,-743 1632.48,-743"/>
<text text-anchor="middle" x="1720.98" y="-1133.3" font-family="Inter" font-size="16.00">GitHub Actions CI/CD</text>
</g>
<g id="clust2" class="cluster">
<title>cluster_global</title>
<polygon fill="#fff9d6" stroke="black" points="841.48,-597 841.48,-690.5 2125.48,-690.5 2125.48,-597 841.48,-597"/>
<text text-anchor="middle" x="1483.48" y="-671.3" font-family="Inter" font-size="16.00">AWS Global Resources</text>
</g>
<g id="clust3" class="cluster">
<title>cluster_dev</title>
<polygon fill="#fff9d6" stroke="black" points="155.48,-8 155.48,-528 1150.48,-528 1150.48,-8 155.48,-8"/>
<text text-anchor="middle" x="652.98" y="-508.8" font-family="Inter" font-size="16.00">Dev Environment</text>
</g>
<g id="clust4" class="cluster">
<title>cluster_lambda_dev</title>
<polygon fill="#fff9d6" stroke="black" points="163.48,-16 163.48,-489.5 341.48,-489.5 341.48,-16 163.48,-16"/>
<text text-anchor="middle" x="252.48" y="-470.3" font-family="Inter" font-size="16.00">Lambda Target (Dev)</text>
</g>
<g id="clust5" class="cluster">
<title>cluster_ec2_dev</title>
<polygon fill="#fff9d6" stroke="black" points="586.48,-16 586.48,-489.5 1142.48,-489.5 1142.48,-16 586.48,-16"/>
<text text-anchor="middle" x="864.48" y="-470.3" font-family="Inter" font-size="16.00">EC2 Target (Dev)</text>
</g>
<g id="clust6" class="cluster">
<title>cluster_prod</title>
<polygon fill="#fff9d6" stroke="black" points="1284.48,-8 1284.48,-528 2521.48,-528 2521.48,-8 1284.48,-8"/>
<text text-anchor="middle" x="1902.98" y="-508.8" font-family="Inter" font-size="16.00">Prod Environment</text>
</g>
<g id="clust7" class="cluster">
<title>cluster_lambda_prod</title>
<polygon fill="#fff9d6" stroke="black" points="1299.48,-16 1299.48,-489.5 1477.48,-489.5 1477.48,-16 1299.48,-16"/>
<text text-anchor="middle" x="1388.48" y="-470.3" font-family="Inter" font-size="16.00">Lambda Target (Prod)</text>
</g>
<g id="clust8" class="cluster">
<title>cluster_ec2_prod</title>
<polygon fill="#fff9d6" stroke="black" points="1650.48,-16 1650.48,-489.5 2206.48,-489.5 2206.48,-16 1650.48,-16"/>
<text text-anchor="middle" x="1928.48" y="-470.3" font-family="Inter" font-size="16.00">EC2 Target (Prod)</text>
</g>
<!-- GH -->
<g id="node1" class="node">
<title>GH</title>
<polygon fill="#fffcee" stroke="#cccccc" points="1795.6,-1114 1657.35,-1114 1657.35,-1078 1795.6,-1078 1795.6,-1114"/>
<text text-anchor="middle" x="1726.48" y="-1092.45" font-family="Inter" font-size="14.00">GitHub Repository</text>
</g>
<!-- BUILD -->
<g id="node2" class="node">
<title>BUILD</title>
<polygon fill="#fffcee" stroke="#cccccc" points="1796.1,-1005 1654.85,-1005 1654.85,-969 1796.1,-969 1796.1,-1005"/>
<text text-anchor="middle" x="1725.48" y="-983.45" font-family="Inter" font-size="14.00">Build &amp; Sign Image</text>
</g>
<!-- GH&#45;&gt;BUILD -->
<g id="edge1" class="edge">
<title>GH&#45;&gt;BUILD</title>
<path fill="none" stroke="black" d="M1726.32,-1077.81C1726.16,-1061.27 1725.93,-1035.98 1725.74,-1016.44"/>
<polygon fill="black" stroke="black" points="1729.24,-1016.63 1725.65,-1006.66 1722.25,-1016.69 1729.24,-1016.63"/>
</g>
<!-- SBOM -->
<g id="node3" class="node">
<title>SBOM</title>
<polygon fill="#fffcee" stroke="#cccccc" points="1783.73,-896 1661.23,-896 1661.23,-860 1783.73,-860 1783.73,-896"/>
<text text-anchor="middle" x="1722.48" y="-874.45" font-family="Inter" font-size="14.00">Generate SBOM</text>
</g>
<!-- BUILD&#45;&gt;SBOM -->
<g id="edge2" class="edge">
<title>BUILD&#45;&gt;SBOM</title>
<path fill="none" stroke="black" d="M1724.99,-968.81C1724.53,-952.27 1723.82,-926.98 1723.27,-907.44"/>
<polygon fill="black" stroke="black" points="1726.78,-907.56 1723,-897.66 1719.78,-907.76 1726.78,-907.56"/>
</g>
<!-- COSIGN -->
<g id="node4" class="node">
<title>COSIGN</title>
<polygon fill="#fffcee" stroke="#cccccc" points="1800.1,-787 1640.85,-787 1640.85,-751 1800.1,-751 1800.1,-787"/>
<text text-anchor="middle" x="1720.48" y="-765.45" font-family="Inter" font-size="14.00">Cosign Image Signing</text>
</g>
<!-- SBOM&#45;&gt;COSIGN -->
<g id="edge3" class="edge">
<title>SBOM&#45;&gt;COSIGN</title>
<path fill="none" stroke="black" d="M1722.16,-859.81C1721.85,-843.27 1721.37,-817.98 1721.01,-798.44"/>
<polygon fill="black" stroke="black" points="1724.51,-798.59 1720.83,-788.66 1717.51,-798.73 1724.51,-798.59"/>
</g>
<!-- ECR -->
<g id="node6" class="node">
<title>ECR</title>
<polygon fill="#ff9900" stroke="#cc7a00" points="1716.23,-652 1524.73,-652 1524.73,-605 1716.23,-605 1716.23,-652"/>
<text text-anchor="middle" x="1620.48" y="-634.7" font-family="Inter" font-size="14.00">Amazon ECR</text>
<text text-anchor="middle" x="1620.48" y="-615.2" font-family="Inter" font-size="14.00">Immutable Image Registry</text>
</g>
<!-- COSIGN&#45;&gt;ECR -->
<g id="edge5" class="edge">
<title>COSIGN&#45;&gt;ECR</title>
<path fill="none" stroke="black" d="M1708.01,-750.74C1691.9,-728.42 1663.54,-689.14 1643.47,-661.34"/>
<polygon fill="black" stroke="black" points="1646.33,-659.32 1637.63,-653.26 1640.65,-663.42 1646.33,-659.32"/>
<text text-anchor="middle" x="1737.93" y="-701.7" font-family="Times,serif" font-size="14.00">4. Push signed image</text>
</g>
<!-- OIDC -->
<g id="node5" class="node">
<title>OIDC</title>
<polygon fill="#00a8e1" stroke="#0077b6" points="2117.85,-652 1957.1,-652 1957.1,-605 2117.85,-605 2117.85,-652"/>
<text text-anchor="middle" x="2037.48" y="-634.7" font-family="Inter" font-size="14.00" fill="white">GitHub OIDC Provider</text>
<text text-anchor="middle" x="2037.48" y="-615.2" font-family="Inter" font-size="14.00" fill="white">Trust Policy</text>
</g>
<!-- OIDC&#45;&gt;GH -->
<g id="edge4" class="edge">
<title>OIDC&#45;&gt;GH</title>
<path fill="none" stroke="black" d="M2028.63,-652.14C2018.86,-679.25 2004.48,-726.23 2004.48,-768 2004.48,-988 2004.48,-988 2004.48,-988 2004.48,-1030.64 1889.1,-1062.75 1807.01,-1080.2"/>
<polygon fill="black" stroke="black" points="1806.47,-1076.74 1797.39,-1082.2 1807.9,-1083.59 1806.47,-1076.74"/>
<text text-anchor="middle" x="2041.6" y="-872.95" font-family="Times,serif" font-size="14.00">Authenticates</text>
</g>
<!-- LAMBDA_DEV -->
<g id="node11" class="node">
<title>LAMBDA_DEV</title>
<polygon fill="#ff9900" stroke="#cccccc" points="333.48,-451 203.48,-451 203.48,-404 333.48,-404 333.48,-451"/>
<text text-anchor="middle" x="268.48" y="-433.7" font-family="Inter" font-size="14.00">Lambda Function</text>
<text text-anchor="middle" x="268.48" y="-414.2" font-family="Inter" font-size="14.00">Container Image</text>
</g>
<!-- ECR&#45;&gt;LAMBDA_DEV -->
<g id="edge26" class="edge">
<title>ECR&#45;&gt;LAMBDA_DEV</title>
<path fill="none" stroke="black" d="M1574.25,-604.65C1521.37,-578.72 1440.04,-539.53 1424.48,-536 1378.53,-525.58 622.98,-535.55 576.48,-528 489.88,-513.94 394.35,-480.02 332.99,-455.7"/>
<polygon fill="black" stroke="black" points="334.31,-452.45 323.73,-451.99 331.71,-458.95 334.31,-452.45"/>
<text text-anchor="middle" x="1548.4" y="-547.45" font-family="Times,serif" font-size="14.00">5a. Deploy to Dev</text>
</g>
<!-- ASG_DEV -->
<g id="node18" class="node">
<title>ASG_DEV</title>
<polygon fill="#fffcee" stroke="#cccccc" points="939.85,-451 797.1,-451 797.1,-404 939.85,-404 939.85,-451"/>
<text text-anchor="middle" x="868.48" y="-433.7" font-family="Inter" font-size="14.00">Auto Scaling Group</text>
<text text-anchor="middle" x="868.48" y="-414.2" font-family="Inter" font-size="14.00">2 Instances</text>
</g>
<!-- ECR&#45;&gt;ASG_DEV -->
<g id="edge27" class="edge">
<title>ECR&#45;&gt;ASG_DEV</title>
<path fill="none" stroke="black" d="M1626.33,-604.71C1630.22,-583.65 1631.72,-553.11 1613.48,-536 1600.49,-523.82 988.96,-534.74 972.48,-528 938.78,-514.23 909.76,-483.92 891,-460.34"/>
<polygon fill="black" stroke="black" points="893.89,-458.35 885.01,-452.57 888.34,-462.63 893.89,-458.35"/>
<text text-anchor="middle" x="1678.73" y="-547.45" font-family="Times,serif" font-size="14.00">5b. Deploy to Dev</text>
</g>
<!-- LAMBDA_PROD -->
<g id="node24" class="node">
<title>LAMBDA_PROD</title>
<polygon fill="#ff9900" stroke="#cccccc" points="1466.48,-451 1336.48,-451 1336.48,-404 1466.48,-404 1466.48,-451"/>
<text text-anchor="middle" x="1401.48" y="-433.7" font-family="Inter" font-size="14.00">Lambda Function</text>
<text text-anchor="middle" x="1401.48" y="-414.2" font-family="Inter" font-size="14.00">Container Image</text>
</g>
<!-- ECR&#45;&gt;LAMBDA_PROD -->
<g id="edge38" class="edge">
<title>ECR&#45;&gt;LAMBDA_PROD</title>
<path fill="none" stroke="black" d="M1704.79,-604.51C1749.18,-588.41 1789.34,-564.68 1762.48,-536 1753.19,-526.08 1653.7,-531.1 1640.48,-528 1573.61,-512.35 1501.43,-479.93 1454.09,-456.34"/>
<polygon fill="black" stroke="black" points="1455.94,-453.36 1445.44,-451.99 1452.79,-459.61 1455.94,-453.36"/>
<text text-anchor="middle" x="1823.64" y="-555.7" font-family="Times,serif" font-size="14.00">6. Promote to Prod</text>
<text text-anchor="middle" x="1823.64" y="-539.2" font-family="Times,serif" font-size="14.00">(Manual Approval)</text>
</g>
<!-- ASG_PROD -->
<g id="node31" class="node">
<title>ASG_PROD</title>
<polygon fill="#fffcee" stroke="#cccccc" points="1988.85,-451 1846.1,-451 1846.1,-404 1988.85,-404 1988.85,-451"/>
<text text-anchor="middle" x="1917.48" y="-433.7" font-family="Inter" font-size="14.00">Auto Scaling Group</text>
<text text-anchor="middle" x="1917.48" y="-414.2" font-family="Inter" font-size="14.00">2 Instances</text>
</g>
<!-- ECR&#45;&gt;ASG_PROD -->
<g id="edge39" class="edge">
<title>ECR&#45;&gt;ASG_PROD</title>
<path fill="none" stroke="black" d="M1705.62,-604.57C1716.32,-601.91 1727.13,-599.32 1737.48,-597 1803.23,-582.27 1838.09,-615.89 1886.48,-569 1914.71,-541.64 1919.94,-494.81 1919.79,-462.8"/>
<polygon fill="black" stroke="black" points="1923.29,-462.75 1919.54,-452.84 1916.29,-462.92 1923.29,-462.75"/>
<text text-anchor="middle" x="1959.83" y="-555.7" font-family="Times,serif" font-size="14.00">6. Promote to Prod</text>
<text text-anchor="middle" x="1959.83" y="-539.2" font-family="Times,serif" font-size="14.00">(Manual Approval)</text>
</g>
<!-- SM -->
<g id="node7" class="node">
<title>SM</title>
<polygon fill="#dd344c" stroke="#cccccc" points="1268.6,-652 1034.35,-652 1034.35,-605 1268.6,-605 1268.6,-652"/>
<text text-anchor="middle" x="1151.48" y="-634.7" font-family="Inter" font-size="14.00" fill="white">Secrets Manager</text>
<text text-anchor="middle" x="1151.48" y="-615.2" font-family="Inter" font-size="14.00" fill="white">/dockyard/SUPER_SECRET_TOKEN</text>
</g>
<!-- SM&#45;&gt;LAMBDA_DEV -->
<g id="edge28" class="edge">
<title>SM&#45;&gt;LAMBDA_DEV</title>
<path fill="none" stroke="black" d="M1049.86,-604.58C984.49,-589.66 910.48,-572.37 903.48,-569 882.09,-558.7 883.8,-544.07 861.48,-536 831.69,-525.23 607.7,-533.37 576.48,-528 490.41,-513.2 395.32,-479.7 333.89,-455.66"/>
<polygon fill="black" stroke="black" points="335.19,-452.41 324.61,-451.99 332.62,-458.92 335.19,-452.41"/>
<text text-anchor="middle" x="948.48" y="-547.45" font-family="Times,serif" font-size="14.00">Runtime Secrets</text>
</g>
<!-- EC2_1_DEV -->
<g id="node19" class="node">
<title>EC2_1_DEV</title>
<polygon fill="#fffcee" stroke="#cccccc" points="1011.1,-331 881.85,-331 881.85,-284 1011.1,-284 1011.1,-331"/>
<text text-anchor="middle" x="946.48" y="-313.7" font-family="Inter" font-size="14.00">EC2 Instance 1</text>
<text text-anchor="middle" x="946.48" y="-294.2" font-family="Inter" font-size="14.00">Docker + Podinfo</text>
</g>
<!-- SM&#45;&gt;EC2_1_DEV -->
<g id="edge29" class="edge">
<title>SM&#45;&gt;EC2_1_DEV</title>
<path fill="none" stroke="black" d="M1126.52,-604.61C1106.52,-585.43 1078.57,-556.65 1058.48,-528 1015.44,-466.65 978.87,-386.5 960.06,-341.99"/>
<polygon fill="black" stroke="black" points="963.33,-340.75 956.25,-332.87 956.87,-343.45 963.33,-340.75"/>
<text text-anchor="middle" x="1103.48" y="-422.45" font-family="Times,serif" font-size="14.00">Runtime Secrets</text>
</g>
<!-- EC2_2_DEV -->
<g id="node20" class="node">
<title>EC2_2_DEV</title>
<polygon fill="#fffcee" stroke="#cccccc" points="759.1,-331 629.85,-331 629.85,-284 759.1,-284 759.1,-331"/>
<text text-anchor="middle" x="694.48" y="-313.7" font-family="Inter" font-size="14.00">EC2 Instance 2</text>
<text text-anchor="middle" x="694.48" y="-294.2" font-family="Inter" font-size="14.00">Docker + Podinfo</text>
</g>
<!-- SM&#45;&gt;EC2_2_DEV -->
<g id="edge30" class="edge">
<title>SM&#45;&gt;EC2_2_DEV</title>
<path fill="none" stroke="black" d="M1056.04,-604.53C1041.83,-601.65 1027.32,-599.02 1013.48,-597 908.75,-581.71 135.55,-605.5 63.48,-528 25.95,-487.64 27.1,-445.4 63.48,-404 144.32,-311.97 483.37,-356.16 618.65,-332.22"/>
<polygon fill="black" stroke="black" points="618.96,-335.73 628.08,-330.34 617.59,-328.87 618.96,-335.73"/>
<text text-anchor="middle" x="108.48" y="-422.45" font-family="Times,serif" font-size="14.00">Runtime Secrets</text>
</g>
<!-- SM&#45;&gt;LAMBDA_PROD -->
<g id="edge40" class="edge">
<title>SM&#45;&gt;LAMBDA_PROD</title>
<path fill="none" stroke="black" d="M1162.05,-604.72C1173.43,-583.03 1193.7,-551.49 1221.48,-536 1252.69,-518.6 1269.17,-543.26 1301.48,-528 1333.4,-512.92 1361.07,-483.28 1379.17,-460.25"/>
<polygon fill="black" stroke="black" points="1381.89,-462.45 1385.17,-452.37 1376.33,-458.21 1381.89,-462.45"/>
<text text-anchor="middle" x="1266.48" y="-547.45" font-family="Times,serif" font-size="14.00">Runtime Secrets</text>
</g>
<!-- EC2_1_PROD -->
<g id="node32" class="node">
<title>EC2_1_PROD</title>
<polygon fill="#fffcee" stroke="#cccccc" points="1982.1,-331 1852.85,-331 1852.85,-284 1982.1,-284 1982.1,-331"/>
<text text-anchor="middle" x="1917.48" y="-313.7" font-family="Inter" font-size="14.00">EC2 Instance 1</text>
<text text-anchor="middle" x="1917.48" y="-294.2" font-family="Inter" font-size="14.00">Docker + Podinfo</text>
</g>
<!-- SM&#45;&gt;EC2_1_PROD -->
<g id="edge41" class="edge">
<title>SM&#45;&gt;EC2_1_PROD</title>
<path fill="none" stroke="black" d="M1216.95,-604.52C1247.51,-593.77 1284.37,-580.77 1317.48,-569 1358.41,-554.45 1366.73,-543.73 1409.48,-536 1425.91,-533.03 1998.75,-539.88 2010.48,-528 2049.19,-488.77 2031.23,-455.05 2010.48,-404 1999.97,-378.16 1978.74,-355.48 1959.21,-338.71"/>
<polygon fill="black" stroke="black" points="1961.51,-336.07 1951.57,-332.4 1957.05,-341.47 1961.51,-336.07"/>
<text text-anchor="middle" x="2078.26" y="-422.45" font-family="Times,serif" font-size="14.00">Runtime Secrets</text>
</g>
<!-- EC2_2_PROD -->
<g id="node33" class="node">
<title>EC2_2_PROD</title>
<polygon fill="#fffcee" stroke="#cccccc" points="1791.1,-331 1661.85,-331 1661.85,-284 1791.1,-284 1791.1,-331"/>
<text text-anchor="middle" x="1726.48" y="-313.7" font-family="Inter" font-size="14.00">EC2 Instance 2</text>
<text text-anchor="middle" x="1726.48" y="-294.2" font-family="Inter" font-size="14.00">Docker + Podinfo</text>
</g>
<!-- SM&#45;&gt;EC2_2_PROD -->
<g id="edge42" class="edge">
<title>SM&#45;&gt;EC2_2_PROD</title>
<path fill="none" stroke="black" d="M1153.2,-604.83C1157.57,-553.7 1170.82,-431.74 1199.48,-404 1231.54,-372.96 1511.88,-334.77 1650.1,-317.61"/>
<polygon fill="black" stroke="black" points="1650.41,-321.09 1659.91,-316.4 1649.55,-314.15 1650.41,-321.09"/>
<text text-anchor="middle" x="1244.48" y="-422.45" font-family="Times,serif" font-size="14.00">Runtime Secrets</text>
</g>
<!-- SNS -->
<g id="node8" class="node">
<title>SNS</title>
<polygon fill="#fffcee" stroke="#cccccc" points="991.48,-652 849.48,-652 849.48,-605 991.48,-605 991.48,-652"/>
<text text-anchor="middle" x="920.48" y="-634.7" font-family="Inter" font-size="14.00">SNS Topic</text>
<text text-anchor="middle" x="920.48" y="-615.2" font-family="Inter" font-size="14.00">Alarm Notifications</text>
</g>
<!-- S3 -->
<g id="node9" class="node">
<title>S3</title>
<polygon fill="#fffcee" stroke="#cccccc" points="1913.85,-652 1759.1,-652 1759.1,-605 1913.85,-605 1913.85,-652"/>
<text text-anchor="middle" x="1836.48" y="-634.7" font-family="Inter" font-size="14.00">S3 Bucket</text>
<text text-anchor="middle" x="1836.48" y="-615.2" font-family="Inter" font-size="14.00">CodeDeploy Artifacts</text>
</g>
<!-- CWD -->
<g id="node10" class="node">
<title>CWD</title>
<polygon fill="#ff9900" stroke="#cccccc" points="1481.73,-652 1311.23,-652 1311.23,-605 1481.73,-605 1481.73,-652"/>
<text text-anchor="middle" x="1396.48" y="-634.7" font-family="Inter" font-size="14.00">CloudWatch Dashboard</text>
<text text-anchor="middle" x="1396.48" y="-615.2" font-family="Inter" font-size="14.00">Unified Metrics &amp; Logs</text>
</g>
<!-- ALIAS_DEV -->
<g id="node12" class="node">
<title>ALIAS_DEV</title>
<polygon fill="#fffcee" stroke="#cccccc" points="306.6,-325.5 174.35,-325.5 174.35,-289.5 306.6,-289.5 306.6,-325.5"/>
<text text-anchor="middle" x="240.48" y="-303.95" font-family="Inter" font-size="14.00">Lambda Alias: live</text>
</g>
<!-- LAMBDA_DEV&#45;&gt;ALIAS_DEV -->
<g id="edge6" class="edge">
<title>LAMBDA_DEV&#45;&gt;ALIAS_DEV</title>
<path fill="none" stroke="black" d="M263.08,-403.75C258.56,-384.71 252.09,-357.46 247.23,-336.98"/>
<polygon fill="black" stroke="black" points="250.65,-336.21 244.94,-327.29 243.84,-337.83 250.65,-336.21"/>
</g>
<!-- CW_LOGS_DEV -->
<g id="node22" class="node">
<title>CW_LOGS_DEV</title>
<polygon fill="#fffcee" stroke="#cccccc" points="551.48,-195.5 421.48,-195.5 421.48,-148.5 551.48,-148.5 551.48,-195.5"/>
<text text-anchor="middle" x="486.48" y="-178.2" font-family="Inter" font-size="14.00">CloudWatch Logs</text>
<text text-anchor="middle" x="486.48" y="-158.7" font-family="Inter" font-size="14.00">Lambda + EC2</text>
</g>
<!-- LAMBDA_DEV&#45;&gt;CW_LOGS_DEV -->
<g id="edge31" class="edge">
<title>LAMBDA_DEV&#45;&gt;CW_LOGS_DEV</title>
<path fill="none" stroke="black" d="M333.85,-422.76C399.29,-415.41 498.12,-393.84 554.48,-331 569.48,-314.27 582.99,-251.36 572.48,-231.5 566.4,-220.02 556.95,-210.37 546.5,-202.43"/>
<polygon fill="black" stroke="black" points="548.57,-199.61 538.36,-196.76 544.56,-205.35 548.57,-199.61"/>
</g>
<!-- CD_LAMBDA_DEV -->
<g id="node13" class="node">
<title>CD_LAMBDA_DEV</title>
<polygon fill="#fffcee" stroke="#cccccc" points="319.35,-195.5 185.6,-195.5 185.6,-148.5 319.35,-148.5 319.35,-195.5"/>
<text text-anchor="middle" x="252.48" y="-178.2" font-family="Inter" font-size="14.00">CodeDeploy</text>
<text text-anchor="middle" x="252.48" y="-158.7" font-family="Inter" font-size="14.00">Canary 10%/5min</text>
</g>
<!-- ALIAS_DEV&#45;&gt;CD_LAMBDA_DEV -->
<g id="edge7" class="edge">
<title>ALIAS_DEV&#45;&gt;CD_LAMBDA_DEV</title>
<path fill="none" stroke="black" d="M242.05,-289.05C243.91,-268.33 247.06,-233.3 249.41,-207.14"/>
<polygon fill="black" stroke="black" points="252.88,-207.6 250.29,-197.33 245.91,-206.98 252.88,-207.6"/>
</g>
<!-- APIGW_DEV -->
<g id="node14" class="node">
<title>APIGW_DEV</title>
<polygon fill="#fffcee" stroke="#cccccc" points="333.6,-60 171.35,-60 171.35,-24 333.6,-24 333.6,-60"/>
<text text-anchor="middle" x="252.48" y="-38.45" font-family="Inter" font-size="14.00">API Gateway HTTP API</text>
</g>
<!-- CD_LAMBDA_DEV&#45;&gt;APIGW_DEV -->
<g id="edge8" class="edge">
<title>CD_LAMBDA_DEV&#45;&gt;APIGW_DEV</title>
<path fill="none" stroke="black" d="M252.48,-148.12C252.48,-126.78 252.48,-94.88 252.48,-71.82"/>
<polygon fill="black" stroke="black" points="255.98,-71.87 252.48,-61.87 248.98,-71.87 255.98,-71.87"/>
</g>
<!-- ALB_DEV -->
<g id="node15" class="node">
<title>ALB_DEV</title>
<polygon fill="#8c4fff" stroke="#cccccc" points="974.6,-60 788.35,-60 788.35,-24 974.6,-24 974.6,-60"/>
<text text-anchor="middle" x="881.48" y="-38.45" font-family="Inter" font-size="14.00" fill="white">Application Load Balancer</text>
</g>
<!-- TG_BLUE_DEV -->
<g id="node16" class="node">
<title>TG_BLUE_DEV</title>
<polygon fill="#fffcee" stroke="#cccccc" points="1134.85,-190 998.1,-190 998.1,-154 1134.85,-154 1134.85,-190"/>
<text text-anchor="middle" x="1066.48" y="-168.45" font-family="Inter" font-size="14.00">Target Group Blue</text>
</g>
<!-- TG_BLUE_DEV&#45;&gt;ALB_DEV -->
<g id="edge11" class="edge">
<title>TG_BLUE_DEV&#45;&gt;ALB_DEV</title>
<path fill="none" stroke="black" d="M1041.53,-153.74C1009.11,-131.31 952.37,-92.05 915.89,-66.81"/>
<polygon fill="black" stroke="black" points="918.08,-64.07 907.87,-61.26 914.1,-69.83 918.08,-64.07"/>
</g>
<!-- TG_GREEN_DEV -->
<g id="node17" class="node">
<title>TG_GREEN_DEV</title>
<polygon fill="#fffcee" stroke="#cccccc" points="955.48,-190 807.48,-190 807.48,-154 955.48,-154 955.48,-190"/>
<text text-anchor="middle" x="881.48" y="-168.45" font-family="Inter" font-size="14.00">Target Group Green</text>
</g>
<!-- TG_GREEN_DEV&#45;&gt;ALB_DEV -->
<g id="edge14" class="edge">
<title>TG_GREEN_DEV&#45;&gt;ALB_DEV</title>
<path fill="none" stroke="black" d="M881.48,-153.74C881.48,-132.74 881.48,-97 881.48,-71.81"/>
<polygon fill="black" stroke="black" points="884.98,-71.91 881.48,-61.91 877.98,-71.91 884.98,-71.91"/>
</g>
<!-- ASG_DEV&#45;&gt;EC2_1_DEV -->
<g id="edge9" class="edge">
<title>ASG_DEV&#45;&gt;EC2_1_DEV</title>
<path fill="none" stroke="black" d="M883.52,-403.75C895.39,-385.79 912.09,-360.52 925.31,-340.52"/>
<polygon fill="black" stroke="black" points="928.05,-342.72 930.65,-332.44 922.22,-338.86 928.05,-342.72"/>
</g>
<!-- ASG_DEV&#45;&gt;EC2_2_DEV -->
<g id="edge12" class="edge">
<title>ASG_DEV&#45;&gt;EC2_2_DEV</title>
<path fill="none" stroke="black" d="M857.57,-403.52C850.86,-391.36 841.29,-376.94 829.48,-367 812.18,-352.43 790.69,-340.95 769.99,-332.15"/>
<polygon fill="black" stroke="black" points="771.57,-329.01 760.99,-328.49 768.94,-335.5 771.57,-329.01"/>
</g>
<!-- EC2_1_DEV&#45;&gt;TG_BLUE_DEV -->
<g id="edge10" class="edge">
<title>EC2_1_DEV&#45;&gt;TG_BLUE_DEV</title>
<path fill="none" stroke="black" d="M967.11,-283.55C988.35,-259.91 1021.39,-223.16 1043.47,-198.59"/>
<polygon fill="black" stroke="black" points="1045.97,-201.05 1050.06,-191.27 1040.77,-196.37 1045.97,-201.05"/>
</g>
<!-- EC2_1_DEV&#45;&gt;CW_LOGS_DEV -->
<g id="edge32" class="edge">
<title>EC2_1_DEV&#45;&gt;CW_LOGS_DEV</title>
<path fill="none" stroke="black" d="M881.55,-287.66C797.62,-263.3 651.73,-220.96 562.66,-195.11"/>
<polygon fill="black" stroke="black" points="563.85,-191.81 553.27,-192.39 561.9,-198.53 563.85,-191.81"/>
</g>
<!-- EC2_2_DEV&#45;&gt;TG_GREEN_DEV -->
<g id="edge13" class="edge">
<title>EC2_2_DEV&#45;&gt;TG_GREEN_DEV</title>
<path fill="none" stroke="black" d="M729.93,-283.65C746.11,-273.03 765.43,-260.11 782.48,-248 805.59,-231.58 831.08,-212.25 850.4,-197.32"/>
<polygon fill="black" stroke="black" points="852.4,-200.2 858.16,-191.3 848.11,-194.67 852.4,-200.2"/>
</g>
<!-- EC2_2_DEV&#45;&gt;CW_LOGS_DEV -->
<g id="edge33" class="edge">
<title>EC2_2_DEV&#45;&gt;CW_LOGS_DEV</title>
<path fill="none" stroke="black" d="M663.93,-283.72C643.03,-268.43 614.51,-248.12 588.48,-231.5 572.38,-221.22 554.42,-210.64 538.11,-201.35"/>
<polygon fill="black" stroke="black" points="539.95,-198.37 529.52,-196.49 536.5,-204.46 539.95,-198.37"/>
</g>
<!-- CD_EC2_DEV -->
<g id="node21" class="node">
<title>CD_EC2_DEV</title>
<polygon fill="#fffcee" stroke="#cccccc" points="764.35,-195.5 594.6,-195.5 594.6,-148.5 764.35,-148.5 764.35,-195.5"/>
<text text-anchor="middle" x="679.48" y="-178.2" font-family="Inter" font-size="14.00">CodeDeploy</text>
<text text-anchor="middle" x="679.48" y="-158.7" font-family="Inter" font-size="14.00">Blue/Green Traffic Shift</text>
</g>
<!-- CD_EC2_DEV&#45;&gt;ALB_DEV -->
<g id="edge15" class="edge">
<title>CD_EC2_DEV&#45;&gt;ALB_DEV</title>
<path fill="none" stroke="black" d="M715.59,-148.12C752.05,-125.01 808.07,-89.51 844.75,-66.27"/>
<polygon fill="black" stroke="black" points="846.24,-69.47 852.81,-61.16 842.49,-63.56 846.24,-69.47"/>
<text text-anchor="middle" x="826.32" y="-99.2" font-family="Times,serif" font-size="14.00">Traffic Shift</text>
</g>
<!-- CW_LOGS_DEV&#45;&gt;CWD -->
<g id="edge34" class="edge">
<title>CW_LOGS_DEV&#45;&gt;CWD</title>
<path fill="none" stroke="black" d="M421.21,-183.93C324.87,-200.14 155.64,-228.93 153.48,-231.5 111.1,-281.97 112.17,-482.12 159.48,-528 171.06,-539.24 1306.91,-529.05 1321.48,-536 1346.96,-548.17 1366.71,-573.66 1379.53,-594.66"/>
<polygon fill="black" stroke="black" points="1376.45,-596.33 1384.5,-603.21 1382.5,-592.81 1376.45,-596.33"/>
</g>
<!-- CW_ALARMS_DEV -->
<g id="node23" class="node">
<title>CW_ALARMS_DEV</title>
<polygon fill="#fffcee" stroke="#cccccc" points="533.1,-331 349.85,-331 349.85,-284 533.1,-284 533.1,-331"/>
<text text-anchor="middle" x="441.48" y="-313.7" font-family="Inter" font-size="14.00">CloudWatch Alarms</text>
<text text-anchor="middle" x="441.48" y="-294.2" font-family="Inter" font-size="14.00">5xx, Throttles, Unhealthy</text>
</g>
<!-- CW_ALARMS_DEV&#45;&gt;SNS -->
<g id="edge35" class="edge">
<title>CW_ALARMS_DEV&#45;&gt;SNS</title>
<path fill="none" stroke="black" d="M349.54,-330.2C348.17,-330.47 346.82,-330.74 345.48,-331 275.16,-344.72 65.74,-343.92 25.48,-404 -5.2,-449.78 -11.28,-486.93 25.48,-528 79.19,-588.02 626.43,-615.89 837.79,-624.47"/>
<polygon fill="black" stroke="black" points="837.47,-627.96 847.6,-624.87 837.75,-620.97 837.47,-627.96"/>
</g>
<!-- CW_ALARMS_DEV&#45;&gt;CD_LAMBDA_DEV -->
<g id="edge37" class="edge">
<title>CW_ALARMS_DEV&#45;&gt;CD_LAMBDA_DEV</title>
<path fill="none" stroke="black" d="M369.95,-283.54C348.44,-274.55 325.68,-262.79 307.23,-248 292.71,-236.37 280.16,-219.99 270.75,-205.5"/>
<polygon fill="black" stroke="black" points="273.8,-203.78 265.55,-197.14 267.86,-207.48 273.8,-203.78"/>
<text text-anchor="middle" x="359.35" y="-234.7" font-family="Times,serif" font-size="14.00">Rollback on Alarm</text>
</g>
<!-- CW_ALARMS_DEV&#45;&gt;CD_EC2_DEV -->
<g id="edge36" class="edge">
<title>CW_ALARMS_DEV&#45;&gt;CD_EC2_DEV</title>
<path fill="none" stroke="black" d="M482.39,-283.55C522.96,-260.8 585.2,-225.88 628.86,-201.4"/>
<polygon fill="black" stroke="black" points="630.37,-204.56 637.38,-196.61 626.95,-198.45 630.37,-204.56"/>
<text text-anchor="middle" x="626.85" y="-234.7" font-family="Times,serif" font-size="14.00">Rollback on Alarm</text>
</g>
<!-- ALIAS_PROD -->
<g id="node25" class="node">
<title>ALIAS_PROD</title>
<polygon fill="#fffcee" stroke="#cccccc" points="1469.6,-325.5 1337.35,-325.5 1337.35,-289.5 1469.6,-289.5 1469.6,-325.5"/>
<text text-anchor="middle" x="1403.48" y="-303.95" font-family="Inter" font-size="14.00">Lambda Alias: live</text>
</g>
<!-- LAMBDA_PROD&#45;&gt;ALIAS_PROD -->
<g id="edge16" class="edge">
<title>LAMBDA_PROD&#45;&gt;ALIAS_PROD</title>
<path fill="none" stroke="black" d="M1401.86,-403.75C1402.18,-384.8 1402.64,-357.72 1402.99,-337.27"/>
<polygon fill="black" stroke="black" points="1406.49,-337.39 1403.16,-327.33 1399.49,-337.27 1406.49,-337.39"/>
</g>
<!-- CW_LOGS_PROD -->
<g id="node35" class="node">
<title>CW_LOGS_PROD</title>
<polygon fill="#fffcee" stroke="#cccccc" points="1615.48,-195.5 1485.48,-195.5 1485.48,-148.5 1615.48,-148.5 1615.48,-195.5"/>
<text text-anchor="middle" x="1550.48" y="-178.2" font-family="Inter" font-size="14.00">CloudWatch Logs</text>
<text text-anchor="middle" x="1550.48" y="-158.7" font-family="Inter" font-size="14.00">Lambda + EC2</text>
</g>
<!-- LAMBDA_PROD&#45;&gt;CW_LOGS_PROD -->
<g id="edge43" class="edge">
<title>LAMBDA_PROD&#45;&gt;CW_LOGS_PROD</title>
<path fill="none" stroke="black" d="M1370.58,-403.61C1336.29,-375.3 1289.03,-325.74 1315.48,-284 1333.83,-255.04 1413.19,-221.35 1474.67,-198.75"/>
<polygon fill="black" stroke="black" points="1475.52,-202.16 1483.73,-195.46 1473.13,-195.59 1475.52,-202.16"/>
</g>
<!-- CD_LAMBDA_PROD -->
<g id="node26" class="node">
<title>CD_LAMBDA_PROD</title>
<polygon fill="#fffcee" stroke="#cccccc" points="1442.35,-195.5 1308.6,-195.5 1308.6,-148.5 1442.35,-148.5 1442.35,-195.5"/>
<text text-anchor="middle" x="1375.48" y="-178.2" font-family="Inter" font-size="14.00">CodeDeploy</text>
<text text-anchor="middle" x="1375.48" y="-158.7" font-family="Inter" font-size="14.00">Canary 10%/5min</text>
</g>
<!-- ALIAS_PROD&#45;&gt;CD_LAMBDA_PROD -->
<g id="edge17" class="edge">
<title>ALIAS_PROD&#45;&gt;CD_LAMBDA_PROD</title>
<path fill="none" stroke="black" d="M1399.82,-289.05C1395.45,-268.24 1388.06,-232.99 1382.56,-206.78"/>
<polygon fill="black" stroke="black" points="1386.05,-206.37 1380.57,-197.3 1379.2,-207.81 1386.05,-206.37"/>
</g>
<!-- APIGW_PROD -->
<g id="node27" class="node">
<title>APIGW_PROD</title>
<polygon fill="#fffcee" stroke="#cccccc" points="1469.6,-60 1307.35,-60 1307.35,-24 1469.6,-24 1469.6,-60"/>
<text text-anchor="middle" x="1388.48" y="-38.45" font-family="Inter" font-size="14.00">API Gateway HTTP API</text>
</g>
<!-- CD_LAMBDA_PROD&#45;&gt;APIGW_PROD -->
<g id="edge18" class="edge">
<title>CD_LAMBDA_PROD&#45;&gt;APIGW_PROD</title>
<path fill="none" stroke="black" d="M1377.8,-148.12C1379.98,-126.68 1383.24,-94.58 1385.58,-71.5"/>
<polygon fill="black" stroke="black" points="1389.03,-72.16 1386.56,-61.86 1382.07,-71.45 1389.03,-72.16"/>
</g>
<!-- ALB_PROD -->
<g id="node28" class="node">
<title>ALB_PROD</title>
<polygon fill="#8c4fff" stroke="#cccccc" points="2010.6,-60 1824.35,-60 1824.35,-24 2010.6,-24 2010.6,-60"/>
<text text-anchor="middle" x="1917.48" y="-38.45" font-family="Inter" font-size="14.00" fill="white">Application Load Balancer</text>
</g>
<!-- TG_BLUE_PROD -->
<g id="node29" class="node">
<title>TG_BLUE_PROD</title>
<polygon fill="#fffcee" stroke="#cccccc" points="1985.85,-190 1849.1,-190 1849.1,-154 1985.85,-154 1985.85,-190"/>
<text text-anchor="middle" x="1917.48" y="-168.45" font-family="Inter" font-size="14.00">Target Group Blue</text>
</g>
<!-- TG_BLUE_PROD&#45;&gt;ALB_PROD -->
<g id="edge21" class="edge">
<title>TG_BLUE_PROD&#45;&gt;ALB_PROD</title>
<path fill="none" stroke="black" d="M1917.48,-153.74C1917.48,-132.74 1917.48,-97 1917.48,-71.81"/>
<polygon fill="black" stroke="black" points="1920.98,-71.91 1917.48,-61.91 1913.98,-71.91 1920.98,-71.91"/>
</g>
<!-- TG_GREEN_PROD -->
<g id="node30" class="node">
<title>TG_GREEN_PROD</title>
<polygon fill="#fffcee" stroke="#cccccc" points="1806.48,-190 1658.48,-190 1658.48,-154 1806.48,-154 1806.48,-190"/>
<text text-anchor="middle" x="1732.48" y="-168.45" font-family="Inter" font-size="14.00">Target Group Green</text>
</g>
<!-- TG_GREEN_PROD&#45;&gt;ALB_PROD -->
<g id="edge24" class="edge">
<title>TG_GREEN_PROD&#45;&gt;ALB_PROD</title>
<path fill="none" stroke="black" d="M1757.43,-153.74C1789.84,-131.31 1846.58,-92.05 1883.07,-66.81"/>
<polygon fill="black" stroke="black" points="1884.85,-69.83 1891.09,-61.26 1880.87,-64.07 1884.85,-69.83"/>
</g>
<!-- ASG_PROD&#45;&gt;EC2_1_PROD -->
<g id="edge19" class="edge">
<title>ASG_PROD&#45;&gt;EC2_1_PROD</title>
<path fill="none" stroke="black" d="M1917.48,-403.75C1917.48,-386.36 1917.48,-362.12 1917.48,-342.45"/>
<polygon fill="black" stroke="black" points="1920.98,-342.7 1917.48,-332.7 1913.98,-342.7 1920.98,-342.7"/>
</g>
<!-- ASG_PROD&#45;&gt;EC2_2_PROD -->
<g id="edge22" class="edge">
<title>ASG_PROD&#45;&gt;EC2_2_PROD</title>
<path fill="none" stroke="black" d="M1880.65,-403.75C1849.97,-384.79 1806.09,-357.68 1772.98,-337.23"/>
<polygon fill="black" stroke="black" points="1775.15,-334.46 1764.8,-332.18 1771.47,-340.41 1775.15,-334.46"/>
</g>
<!-- EC2_1_PROD&#45;&gt;TG_BLUE_PROD -->
<g id="edge20" class="edge">
<title>EC2_1_PROD&#45;&gt;TG_BLUE_PROD</title>
<path fill="none" stroke="black" d="M1917.48,-283.55C1917.48,-260.85 1917.48,-226.04 1917.48,-201.56"/>
<polygon fill="black" stroke="black" points="1920.98,-201.66 1917.48,-191.66 1913.98,-201.66 1920.98,-201.66"/>
</g>
<!-- EC2_1_PROD&#45;&gt;CW_LOGS_PROD -->
<g id="edge44" class="edge">
<title>EC2_1_PROD&#45;&gt;CW_LOGS_PROD</title>
<path fill="none" stroke="black" d="M1854.39,-283.55C1790.48,-260.3 1691.69,-224.37 1624.21,-199.82"/>
<polygon fill="black" stroke="black" points="1625.68,-196.63 1615.09,-196.5 1623.29,-203.21 1625.68,-196.63"/>
</g>
<!-- EC2_2_PROD&#45;&gt;TG_GREEN_PROD -->
<g id="edge23" class="edge">
<title>EC2_2_PROD&#45;&gt;TG_GREEN_PROD</title>
<path fill="none" stroke="black" d="M1727.51,-283.55C1728.53,-260.85 1730.09,-226.04 1731.19,-201.56"/>
<polygon fill="black" stroke="black" points="1734.69,-201.8 1731.64,-191.66 1727.69,-201.49 1734.69,-201.8"/>
</g>
<!-- EC2_2_PROD&#45;&gt;CW_LOGS_PROD -->
<g id="edge45" class="edge">
<title>EC2_2_PROD&#45;&gt;CW_LOGS_PROD</title>
<path fill="none" stroke="black" d="M1696.22,-283.55C1666.79,-261.23 1621.93,-227.2 1589.76,-202.8"/>
<polygon fill="black" stroke="black" points="1591.92,-200.04 1581.84,-196.79 1587.69,-205.62 1591.92,-200.04"/>
</g>
<!-- CD_EC2_PROD -->
<g id="node34" class="node">
<title>CD_EC2_PROD</title>
<polygon fill="#fffcee" stroke="#cccccc" points="2198.35,-195.5 2028.6,-195.5 2028.6,-148.5 2198.35,-148.5 2198.35,-195.5"/>
<text text-anchor="middle" x="2113.48" y="-178.2" font-family="Inter" font-size="14.00">CodeDeploy</text>
<text text-anchor="middle" x="2113.48" y="-158.7" font-family="Inter" font-size="14.00">Blue/Green Traffic Shift</text>
</g>
<!-- CD_EC2_PROD&#45;&gt;ALB_PROD -->
<g id="edge25" class="edge">
<title>CD_EC2_PROD&#45;&gt;ALB_PROD</title>
<path fill="none" stroke="black" d="M2078.44,-148.12C2043.21,-125.11 1989.16,-89.81 1953.57,-66.57"/>
<polygon fill="black" stroke="black" points="1955.6,-63.72 1945.31,-61.18 1951.77,-69.58 1955.6,-63.72"/>
<text text-anchor="middle" x="2055.1" y="-99.2" font-family="Times,serif" font-size="14.00">Traffic Shift</text>
</g>
<!-- CW_LOGS_PROD&#45;&gt;CWD -->
<g id="edge46" class="edge">
<title>CW_LOGS_PROD&#45;&gt;CWD</title>
<path fill="none" stroke="black" d="M1615.55,-190.91C1623.89,-192.72 1632.35,-194.32 1640.48,-195.5 1686.76,-202.21 2449.12,-197.73 2481.48,-231.5 2486.55,-236.8 2483.79,-241.04 2481.48,-248 2427.45,-410.6 2374.92,-462.77 2216.48,-528 2178,-543.84 1504.75,-517.5 1467.48,-536 1442.71,-548.29 1424.07,-573.78 1412.11,-594.74"/>
<polygon fill="black" stroke="black" points="1409.19,-592.79 1407.51,-603.25 1415.34,-596.12 1409.19,-592.79"/>
</g>
<!-- CW_ALARMS_PROD -->
<g id="node36" class="node">
<title>CW_ALARMS_PROD</title>
<polygon fill="#fffcee" stroke="#cccccc" points="2398.1,-331 2214.85,-331 2214.85,-284 2398.1,-284 2398.1,-331"/>
<text text-anchor="middle" x="2306.48" y="-313.7" font-family="Inter" font-size="14.00">CloudWatch Alarms</text>
<text text-anchor="middle" x="2306.48" y="-294.2" font-family="Inter" font-size="14.00">5xx, Throttles, Unhealthy</text>
</g>
<!-- CW_ALARMS_PROD&#45;&gt;SNS -->
<g id="edge47" class="edge">
<title>CW_ALARMS_PROD&#45;&gt;SNS</title>
<path fill="none" stroke="black" d="M2295.76,-331.17C2286.71,-350.46 2273.5,-378.94 2262.48,-404 2238.41,-458.7 2260.14,-494.76 2210.48,-528 2194.79,-538.5 864.78,-522.61 851.48,-536 832.76,-554.83 852.31,-578.89 875.31,-597.62"/>
<polygon fill="black" stroke="black" points="872.97,-600.23 883.03,-603.58 877.26,-594.7 872.97,-600.23"/>
</g>
<!-- CW_ALARMS_PROD&#45;&gt;CD_LAMBDA_PROD -->
<g id="edge49" class="edge">
<title>CW_ALARMS_PROD&#45;&gt;CD_LAMBDA_PROD</title>
<path fill="none" stroke="black" d="M2214.55,-284.73C2213.18,-284.48 2211.83,-284.24 2210.48,-284 1877.36,-225.87 1782.74,-266.24 1453.47,-196.95"/>
<polygon fill="black" stroke="black" points="1454.65,-193.62 1444.14,-194.96 1453.19,-200.47 1454.65,-193.62"/>
<text text-anchor="middle" x="1931.36" y="-234.7" font-family="Times,serif" font-size="14.00">Rollback on Alarm</text>
</g>
<!-- CW_ALARMS_PROD&#45;&gt;CD_EC2_PROD -->
<g id="edge48" class="edge">
<title>CW_ALARMS_PROD&#45;&gt;CD_EC2_PROD</title>
<path fill="none" stroke="black" d="M2341.31,-283.6C2359.78,-268.61 2376.1,-248.69 2362.48,-231.5 2343.33,-207.33 2271.7,-192.17 2210.15,-183.36"/>
<polygon fill="black" stroke="black" points="2210.67,-179.9 2200.29,-181.99 2209.71,-186.83 2210.67,-179.9"/>
<text text-anchor="middle" x="2419.64" y="-234.7" font-family="Times,serif" font-size="14.00">Rollback on Alarm</text>
</g>
</g>
</svg>
